<?xml version="1.0" standalone="no"?>
<!DOCTYPE svg PUBLIC "-//W3C//DTD SVG 20010904//EN"
 "http://www.w3.org/TR/2001/REC-SVG-20010904/DTD/svg10.dtd">
<svg version="1.0" xmlns="http://www.w3.org/2000/svg"
 width="752.000000pt" height="752.000000pt" viewBox="0 0 752.000000 752.000000"
 preserveAspectRatio="xMidYMid meet">

<g transform="translate(0.000000,752.000000) scale(0.100000,-0.100000)"
fill="#414141" stroke="none">
<path d="M3390 5529 c-254 -21 -503 -114 -645 -241 -46 -42 -55 -46 -122 -52
-274 -27 -462 -135 -596 -342 l-44 -69 -83 -23 c-140 -38 -243 -96 -336 -187
-132 -129 -169 -225 -168 -430 1 -112 4 -141 27 -210 15 -44 44 -110 67 -147
40 -66 40 -68 40 -166 0 -86 -3 -101 -20 -117 -32 -29 -66 -95 -91 -175 -18
-58 -23 -100 -23 -185 -1 -118 13 -177 62 -266 l25 -45 -26 -80 c-61 -182 -82
-398 -53 -534 59 -282 294 -477 598 -497 l87 -6 63 -61 c121 -118 262 -168
458 -165 95 2 126 -2 181 -20 129 -43 299 -45 398 -5 42 16 42 16 110 -15 295
-136 779 -133 1120 5 l86 35 195 3 c216 4 366 25 505 72 97 32 200 84 252 128
21 18 67 43 103 55 167 60 307 148 410 258 117 124 167 266 156 440 -8 115
-43 256 -91 359 l-36 81 35 64 c19 35 47 105 62 154 24 79 27 108 27 230 1 77
-5 169 -12 205 -19 100 -78 269 -120 344 l-38 69 52 82 c93 149 132 314 121
510 -13 221 -51 377 -130 540 -65 132 -121 210 -221 304 -89 82 -151 116 -187
102 -34 -13 -42 -27 -66 -106 -102 -341 -543 -547 -1291 -604 -153 -11 -171
-20 -171 -82 0 -30 6 -42 25 -55 67 -44 631 33 900 121 310 103 531 264 630
459 l39 77 49 -48 c170 -166 277 -467 277 -778 -1 -306 -183 -547 -555 -733
-478 -238 -1196 -342 -2167 -313 -537 17 -838 48 -1103 116 -228 58 -375 134
-479 245 -65 70 -101 141 -121 235 -40 192 -1 341 122 455 128 120 330 183
626 197 125 5 152 9 173 25 35 28 33 79 -3 109 -27 20 -35 21 -155 16 -72 -4
-128 -2 -128 2 0 5 27 34 60 64 105 95 229 142 411 156 l96 8 57 54 c102 100
267 177 463 216 107 21 407 23 528 4 192 -30 345 -83 456 -156 70 -47 92 -52
166 -35 146 34 395 29 561 -10 46 -11 96 -20 111 -20 56 0 86 76 47 119 -12
13 -58 29 -129 47 -144 35 -407 45 -555 21 l-93 -16 -43 30 c-139 93 -370 158
-636 179 -139 11 -164 11 -300 -1z m2505 -1746 c61 -148 79 -237 79 -398 -1
-124 -4 -149 -27 -221 -44 -134 -108 -216 -252 -326 -131 -99 -212 -122 -418
-121 l-148 1 -49 -61 c-104 -133 -253 -202 -488 -228 -59 -6 -141 -8 -183 -4
l-78 6 -38 -34 c-81 -72 -193 -105 -393 -114 -240 -10 -450 29 -583 109 l-68
41 -77 -24 c-65 -20 -97 -24 -207 -24 -149 0 -215 14 -363 77 l-93 40 -80 -16
c-44 -9 -101 -16 -128 -16 -64 0 -191 33 -252 66 -69 38 -158 121 -199 187
-21 34 -50 65 -73 77 -75 43 -155 128 -194 208 -36 73 -38 80 -38 177 1 131
23 202 83 264 58 61 63 72 56 125 -4 25 -3 46 1 46 4 0 20 -9 36 -21 39 -27
180 -93 256 -118 241 -81 558 -128 1014 -152 307 -15 1070 -7 1279 15 709 74
1206 235 1525 494 27 22 53 38 56 36 4 -2 23 -43 44 -91z m27 -1050 c42 -113
53 -173 53 -288 0 -103 -2 -114 -32 -177 -68 -143 -223 -263 -442 -342 -41
-15 -97 -45 -125 -67 -154 -123 -431 -188 -755 -177 l-136 5 -70 -33 c-318
-150 -850 -151 -1096 -3 -36 21 -70 39 -76 39 -6 0 -39 -13 -73 -29 -35 -17
-87 -33 -116 -36 -62 -8 -177 9 -254 38 -47 18 -73 21 -180 18 -137 -3 -208
12 -293 62 -43 25 -107 89 -138 137 -16 24 -23 25 -140 32 -239 13 -373 88
-458 259 -43 86 -55 155 -48 289 5 98 35 262 52 278 11 12 117 -75 151 -125
137 -199 399 -314 643 -282 112 15 105 16 187 -19 138 -58 233 -77 394 -76
101 0 162 5 200 17 l55 15 70 -34 c259 -127 764 -136 1000 -17 27 13 58 32 67
40 13 12 47 16 140 19 288 7 495 81 642 228 l61 61 110 1 c203 3 329 47 485
167 47 37 88 66 91 67 4 0 18 -30 31 -67z"/>
<path d="M5708 3663 c-8 -10 -25 -47 -37 -83 -79 -224 -301 -422 -602 -536
-82 -31 -103 -43 -116 -67 -19 -38 -3 -80 38 -98 27 -11 40 -8 117 21 205 77
356 173 492 310 100 100 157 186 203 302 32 80 34 121 7 148 -25 25 -81 27
-102 3z"/>
<path d="M2550 3163 c-8 -3 -26 -16 -40 -29 -59 -55 -249 -114 -365 -114 -18
0 -44 -10 -59 -21 -36 -29 -33 -83 6 -112 26 -19 32 -20 129 -8 56 7 131 22
168 33 142 43 261 126 261 182 0 46 -57 85 -100 69z"/>
<path d="M3399 2987 c-24 -19 -59 -42 -77 -51 -48 -25 -165 -53 -256 -61 -91
-9 -116 -26 -116 -78 0 -34 18 -58 52 -70 24 -8 179 10 253 30 81 21 191 75
240 116 33 29 39 40 39 72 0 27 -6 43 -23 56 -33 27 -62 23 -112 -14z"/>
<path d="M4552 2939 c-13 -5 -39 -22 -60 -38 -66 -53 -227 -101 -337 -101 -58
0 -95 -30 -95 -75 0 -22 8 -42 23 -56 20 -19 29 -21 102 -15 174 13 340 73
422 152 48 45 53 69 23 106 -23 30 -47 38 -78 27z"/>
<path d="M2817 4809 c-10 -13 -17 -36 -17 -51 0 -42 30 -65 92 -72 127 -14
404 -27 679 -33 l295 -6 22 28 c25 31 27 44 11 78 -19 42 -47 47 -267 47 -114
1 -277 5 -362 10 -429 25 -435 25 -453 -1z"/>
<path d="M5595 4790 c-31 -12 -39 -26 -74 -130 -140 -410 -505 -685 -1067
-804 -143 -30 -152 -33 -164 -57 -29 -53 5 -109 66 -109 55 0 244 46 388 94
375 125 645 325 813 602 66 108 133 280 133 339 0 49 -51 83 -95 65z"/>
<path d="M5008 4524 c-116 -100 -294 -182 -508 -233 -201 -49 -326 -66 -613
-87 -71 -5 -92 -10 -107 -27 -26 -27 -25 -68 2 -97 21 -23 24 -23 172 -17 484
19 933 155 1152 350 48 43 54 53 54 87 0 29 -6 43 -22 54 -39 27 -72 20 -130
-30z"/>
<path d="M2372 4215 c-27 -34 -28 -55 -2 -88 15 -19 35 -28 82 -36 234 -40
653 -60 898 -43 138 10 146 12 167 37 28 32 29 55 4 86 l-19 24 -364 1 c-283
0 -390 4 -488 17 -69 10 -155 20 -191 24 -63 5 -66 5 -87 -22z"/>
</g>
</svg>
