<?xml version="1.0" standalone="no"?>
<!DOCTYPE svg PUBLIC "-//W3C//DTD SVG 20010904//EN"
 "http://www.w3.org/TR/2001/REC-SVG-20010904/DTD/svg10.dtd">
<svg version="1.0" xmlns="http://www.w3.org/2000/svg"
 width="752.000000pt" height="752.000000pt" viewBox="0 0 752.000000 752.000000"
 preserveAspectRatio="xMidYMid meet">

<g transform="translate(0.000000,752.000000) scale(0.100000,-0.100000)"
fill="#000000" stroke="none">
<path d="M3520 5100 c-118 -11 -220 -25 -379 -52 -136 -22 -193 -21 -416 7
-243 31 -373 11 -573 -89 -116 -58 -168 -73 -289 -86 -200 -21 -302 -81 -395
-230 -42 -68 -64 -122 -73 -182 -16 -103 79 -219 264 -321 l64 -36 213 -646
c150 -459 220 -659 241 -689 45 -65 110 -101 278 -155 277 -90 553 -149 875
-188 201 -24 657 -24 862 0 311 37 596 98 871 187 84 27 173 63 199 79 88 56
93 68 299 695 105 320 197 602 205 628 15 46 19 50 105 94 255 132 318 317
181 534 -93 149 -195 209 -395 230 -121 13 -173 28 -289 86 -48 24 -123 56
-165 71 -72 25 -90 28 -228 27 -92 0 -194 -7 -265 -18 -147 -22 -189 -22 -335
3 -284 50 -639 71 -855 51z m555 -85 c72 -7 206 -26 298 -42 l168 -27 122 18
c67 10 190 21 274 24 179 5 216 -3 408 -93 128 -61 187 -77 335 -95 121 -14
181 -42 253 -120 67 -72 109 -155 115 -224 11 -139 -146 -278 -386 -341 -32
-9 -120 -17 -202 -20 -174 -5 -220 -17 -326 -87 -103 -67 -150 -88 -201 -88
l-41 0 1 83 c2 133 -39 219 -123 262 -47 24 -113 38 -245 51 l-60 7 80 27 c44
15 184 68 310 117 325 128 326 128 585 127 118 -1 243 -5 277 -11 67 -10 93
-3 93 26 0 32 -22 40 -140 51 -63 6 -162 20 -220 31 -487 95 -671 125 -955
158 -294 35 -452 44 -735 44 -283 0 -441 -9 -735 -44 -284 -33 -468 -63 -955
-158 -58 -11 -157 -25 -220 -31 -118 -11 -140 -19 -140 -51 0 -28 26 -36 83
-28 29 5 131 11 227 15 272 11 323 0 700 -148 586 -229 762 -258 1375 -223
444 25 616 13 673 -48 44 -47 67 -176 43 -240 -9 -22 -19 -25 -133 -40 -294
-39 -454 -50 -748 -50 -256 -1 -313 2 -427 21 -177 29 -298 60 -548 142 -115
38 -230 74 -255 81 -31 8 -150 13 -380 14 -313 1 -340 3 -415 23 -155 43 -304
129 -390 224 -45 51 -47 54 -43 104 6 69 48 153 115 224 70 76 132 106 248
120 162 20 195 29 339 94 208 94 230 99 410 94 83 -3 206 -14 273 -24 l122
-18 168 28 c92 15 220 33 283 41 158 18 486 18 645 0z m30 -205 c307 -22 614
-60 933 -116 l154 -28 -114 -36 c-62 -20 -217 -78 -343 -128 -390 -154 -571
-199 -844 -211 -397 -18 -628 26 -1097 210 -115 45 -267 101 -337 124 l-128
41 148 27 c290 52 638 96 915 116 165 12 551 12 713 1z m-2216 -755 c97 -25
258 -34 487 -28 265 7 274 6 553 -87 406 -135 547 -161 914 -167 311 -6 539 8
889 53 l47 6 -25 -76 c-28 -89 -30 -150 -8 -261 8 -44 15 -116 15 -160 0 -76
-6 -108 -57 -291 -16 -55 -16 -73 -5 -175 15 -127 9 -171 -35 -245 l-23 -42
-138 -26 c-237 -45 -374 -58 -659 -63 -505 -10 -908 50 -1382 204 -151 50
-206 83 -238 145 -14 26 -404 1207 -404 1222 0 8 5 8 69 -9z m3801 -22 c0 -5
-40 -128 -88 -276 l-89 -267 -40 47 c-35 41 -44 46 -60 37 -31 -19 -26 -42 21
-106 49 -66 51 -74 32 -127 l-12 -34 -45 57 c-35 45 -49 56 -69 54 -44 -5 -37
-41 24 -120 31 -39 56 -77 56 -83 0 -14 -41 -137 -45 -133 -67 83 -130 148
-143 148 -20 0 -42 -18 -42 -35 0 -6 36 -54 80 -106 89 -103 86 -93 48 -197
-14 -38 -36 -72 -67 -102 -41 -41 -61 -50 -176 -87 -164 -53 -315 -96 -320
-91 -3 2 2 26 10 53 17 55 19 154 5 239 -10 63 -8 79 34 221 39 132 43 223 16
383 l-22 133 31 98 31 98 71 7 c84 8 126 24 233 94 103 68 153 82 295 83 64 0
134 4 156 8 54 12 75 12 75 4z"/>
<path d="M5842 4508 c-17 -17 -15 -36 10 -71 32 -48 48 -58 69 -46 25 13 24
44 -3 82 -34 49 -53 58 -76 35z"/>
<path d="M1748 4473 c-23 -26 -58 -99 -58 -121 0 -11 6 -25 14 -31 24 -20 49
2 81 69 23 47 27 65 19 78 -15 24 -38 26 -56 5z"/>
<path d="M5670 4430 c-9 -18 -5 -32 28 -93 31 -58 43 -73 64 -75 44 -5 44 28
1 110 -41 79 -72 98 -93 58z"/>
<path d="M1962 4408 c-6 -8 -22 -45 -36 -83 -18 -50 -22 -73 -15 -87 11 -21
42 -24 56 -5 19 24 55 135 51 158 -3 27 -38 38 -56 17z"/>
<path d="M2402 4383 c-6 -12 -2 -43 12 -93 20 -68 24 -75 49 -78 18 -2 29 2
34 14 7 19 -23 141 -39 162 -15 18 -46 15 -56 -5z"/>
<path d="M5491 4371 c-12 -22 36 -158 61 -172 20 -11 44 -3 52 17 6 14 -38
137 -57 162 -14 18 -45 15 -56 -7z"/>
<path d="M2183 4358 c-18 -24 -34 -130 -22 -145 14 -16 43 -17 56 0 17 21 32
120 22 139 -11 21 -42 24 -56 6z"/>
<path d="M5261 4341 c-13 -23 23 -136 45 -145 19 -7 54 10 54 28 0 18 -31 109
-43 124 -14 18 -45 15 -56 -7z"/>
<path d="M5040 4295 c-11 -14 -11 -24 5 -68 28 -81 44 -107 64 -107 10 0 24 7
31 15 19 23 -36 169 -66 173 -11 2 -27 -4 -34 -13z"/>
<path d="M3231 4141 c-11 -19 10 -100 32 -128 13 -17 42 -16 57 2 9 11 8 25
-5 67 -10 29 -22 59 -28 66 -14 18 -45 15 -56 -7z"/>
<path d="M4611 4142 c-5 -9 -11 -46 -13 -81 -2 -52 0 -65 15 -75 12 -8 22 -8
35 0 22 15 39 138 21 160 -16 19 -46 18 -58 -4z"/>
<path d="M4409 4134 c-18 -21 -30 -135 -17 -151 16 -19 56 -16 62 5 14 49 18
133 6 147 -16 19 -34 19 -51 -1z"/>
<path d="M4205 4116 c-25 -18 -28 -153 -3 -170 30 -19 48 12 55 91 5 64 4 72
-14 82 -15 7 -25 7 -38 -3z"/>
<path d="M3416 4104 c-20 -19 -20 -19 0 -80 20 -60 31 -74 55 -74 34 0 40 33
19 96 -26 74 -44 88 -74 58z"/>
<path d="M3827 4107 c-26 -18 -29 -155 -5 -170 30 -19 49 12 55 87 7 84 -10
113 -50 83z"/>
<path d="M3994 4099 c-12 -20 -22 -134 -12 -151 10 -21 41 -24 56 -5 17 21 26
135 12 152 -15 18 -46 20 -56 4z"/>
<path d="M3585 4071 c-7 -25 26 -122 46 -134 9 -6 24 -7 34 -3 21 8 17 57 -8
119 -12 29 -22 37 -41 37 -15 0 -27 -7 -31 -19z"/>
<path d="M3561 4692 c-8 -15 -3 -32 27 -81 41 -70 65 -89 88 -70 23 19 16 50
-24 109 -41 59 -73 75 -91 42z"/>
<path d="M3899 4693 c-32 -39 -69 -104 -69 -122 0 -10 6 -24 14 -30 23 -19 47
0 88 70 29 48 35 66 27 81 -12 23 -41 23 -60 1z"/>
<path d="M2957 4643 c-17 -16 -4 -52 34 -95 42 -50 71 -60 88 -31 23 42 -90
159 -122 126z"/>
<path d="M3319 4629 c-10 -20 -3 -30 77 -106 69 -64 95 -83 114 -81 20 2 25 9
25 29 0 21 -19 45 -83 103 -86 79 -113 91 -133 55z"/>
<path d="M4068 4574 c-64 -58 -83 -82 -83 -103 0 -20 5 -27 25 -29 19 -2 45
17 114 81 80 76 87 86 77 106 -20 36 -47 24 -133 -55z"/>
<path d="M4489 4613 c-48 -50 -60 -74 -48 -96 17 -29 46 -19 88 31 72 82 34
143 -40 65z"/>
<path d="M4522 3548 c-21 -21 -13 -42 37 -95 53 -57 62 -61 85 -37 22 21 21
26 -20 76 -57 69 -78 80 -102 56z"/>
<path d="M4522 3328 c-20 -20 -14 -37 34 -88 47 -51 70 -60 92 -38 19 19 15
30 -34 86 -46 52 -70 62 -92 40z"/>
<path d="M2712 3178 c-6 -6 -12 -17 -12 -23 0 -22 126 -289 142 -298 23 -15
48 -1 48 26 0 14 -28 87 -63 163 -64 141 -83 164 -115 132z"/>
<path d="M4458 3129 c-28 -16 -21 -41 28 -97 48 -55 63 -61 88 -36 14 13 14
19 2 43 -12 22 -89 102 -99 101 -1 0 -10 -5 -19 -11z"/>
<path d="M2337 3093 c-16 -16 -2 -56 61 -168 57 -100 72 -120 91 -120 52 0 48
25 -29 163 -59 108 -76 132 -94 132 -13 0 -26 -3 -29 -7z"/>
<path d="M2547 3093 c-4 -3 -7 -15 -7 -26 0 -29 91 -225 107 -231 19 -8 53 11
53 29 0 7 -23 64 -51 124 -43 92 -56 111 -74 111 -12 0 -25 -3 -28 -7z"/>
<path d="M4487 2883 c-16 -16 -4 -49 34 -95 33 -39 47 -48 68 -46 44 5 39 40
-15 98 -43 46 -71 60 -87 43z"/>
<path d="M4290 2789 c-13 -23 -9 -29 49 -91 39 -43 76 -50 86 -18 7 23 0 35
-54 93 -39 42 -65 47 -81 16z"/>
</g>
</svg>
