<?xml version="1.0" standalone="no"?>
<!DOCTYPE svg PUBLIC "-//W3C//DTD SVG 20010904//EN"
 "http://www.w3.org/TR/2001/REC-SVG-20010904/DTD/svg10.dtd">
<svg version="1.0" xmlns="http://www.w3.org/2000/svg"
 width="100px" height="100px" viewBox="0 0 752.000000 752.000000"
 preserveAspectRatio="xMidYMid meet">

<g transform="translate(0.000000,752.000000) scale(0.100000,-0.100000)"
fill="#Ff6f6f" stroke="none">
<path fill="#Ff6f6f" d="M3555 5380 c-206 -42 -372 -190 -436 -390 -29 -91 -29 -240 0 -330
80 -251 313 -413 571 -397 304 18 530 257 530 562 0 153 -58 292 -167 401
-126 126 -328 188 -498 154z"/>
<path fill="#48fdfa" d="M4315 4752 c-3 -3 -5 -16 -5 -28 0 -45 -51 -182 -91 -245 -128 -201
-327 -311 -559 -312 -113 0 -196 20 -300 71 -141 69 -287 240 -331 390 -7 24
-17 41 -23 38 -44 -17 -722 -339 -728 -344 -9 -10 1478 -706 1494 -699 10 4
926 433 1413 663 l70 33 -105 49 c-563 266 -830 389 -835 384z"/>
<path fill="#Ff6f6f" d="M2202 3909 l3 -333 749 -353 c412 -194 751 -353 753 -353 1 0 3 150
3 333 l0 334 -738 346 c-405 190 -745 349 -755 353 -16 6 -17 -13 -15 -327z"/>
<path fill="#Ff6f6f" d="M4558 3887 l-748 -351 0 -333 c0 -183 3 -333 8 -332 4 0 342 159 752
352 l745 352 3 333 c1 182 -1 332 -5 331 -5 0 -344 -158 -755 -352z"/>
<path fill="#Ff6f6f" d="M2202 3154 l3 -316 753 -353 752 -353 -2 316 -3 317 -745 352 c-410
193 -748 352 -753 352 -4 1 -6 -141 -5 -315z"/>
<path fill="#Ff6f6f" d="M4560 3116 l-745 -351 -3 -317 -2 -317 72 34 c40 19 379 178 753 354
l680 319 3 316 c1 174 -1 316 -5 315 -5 0 -343 -159 -753 -353z"/>
</g>
</svg>
