<?xml version="1.0" standalone="no"?>
<!DOCTYPE svg PUBLIC "-//W3C//DTD SVG 20010904//EN"
 "http://www.w3.org/TR/2001/REC-SVG-20010904/DTD/svg10.dtd">
<svg version="1.0" xmlns="http://www.w3.org/2000/svg"
 width="752.000000pt" height="752.000000pt" viewBox="0 0 752.000000 752.000000"
 preserveAspectRatio="xMidYMid meet">

<g transform="translate(0.000000,752.000000) scale(0.100000,-0.100000)"
fill="#414141" stroke="none">
<path d="M3429 5630 c-110 -20 -246 -64 -308 -101 -20 -12 -85 -37 -146 -56
-203 -64 -375 -175 -430 -277 -10 -19 -28 -39 -40 -44 -12 -6 -49 -32 -81 -58
-32 -27 -106 -72 -163 -102 -232 -119 -395 -261 -467 -408 l-39 -78 -3 -755
c-2 -529 0 -785 8 -851 25 -201 86 -382 175 -516 60 -89 110 -139 202 -202
240 -163 534 -241 1103 -294 177 -17 861 -16 1040 0 622 57 933 151 1188 360
96 78 198 254 246 424 53 186 56 234 56 1041 0 714 -1 748 -20 808 -46 150
-203 307 -429 429 -45 25 -108 67 -139 94 -71 60 -161 122 -212 145 -22 10
-49 30 -60 44 -61 78 -225 164 -429 227 -69 21 -151 52 -182 69 -69 38 -147
66 -259 93 -128 30 -465 35 -611 8z m486 -130 c271 -39 457 -145 423 -241 -26
-75 -179 -149 -382 -185 -120 -21 -360 -22 -486 -1 -231 39 -390 125 -390 212
0 85 167 174 395 209 107 17 342 20 440 6z m-946 -333 c64 -105 239 -191 475
-234 128 -24 407 -23 540 1 300 54 481 173 502 329 4 26 7 47 8 47 9 0 122
-48 169 -71 186 -93 222 -186 114 -293 -287 -285 -1295 -356 -1854 -131 -101
40 -208 109 -242 156 -15 20 -26 51 -28 78 -8 80 60 155 203 226 l69 33 10
-51 c6 -29 21 -69 34 -90z m2138 -251 c128 -141 86 -299 -116 -436 -438 -296
-1434 -369 -2105 -153 -197 63 -327 133 -424 226 -134 130 -136 256 -6 383
l56 55 20 -40 c85 -172 360 -312 733 -375 329 -55 823 -42 1106 29 338 85 552
226 603 398 5 16 11 15 52 -15 25 -18 62 -50 81 -72z m-2890 -176 c0 -267 354
-511 898 -619 83 -16 197 -36 255 -43 140 -17 660 -17 800 0 266 33 565 112
741 195 255 122 406 288 412 455 1 28 4 52 7 52 14 -1 123 -88 178 -142 85
-84 117 -151 117 -243 0 -101 -41 -184 -138 -279 -87 -87 -165 -140 -312 -211
-251 -121 -562 -203 -960 -251 -102 -13 -228 -18 -463 -19 -290 -1 -325 -3
-340 -19 -15 -15 -18 -57 -22 -414 -6 -426 -8 -445 -58 -478 -36 -24 -120 -24
-155 -1 -63 41 -62 30 -67 499 -4 370 -7 429 -21 443 -21 21 -294 76 -323 65
-49 -18 -51 -28 -56 -289 -6 -267 -11 -290 -61 -317 -36 -18 -112 -18 -148 1
-16 8 -37 31 -47 52 -17 34 -20 71 -24 360 -3 177 -7 323 -10 326 -3 2 -50 27
-105 56 -198 105 -327 218 -386 336 -28 57 -33 79 -34 139 0 99 33 166 127
260 55 54 160 139 194 155 1 1 1 -31 1 -69z m-142 -845 c33 -24 95 -62 137
-85 l77 -41 3 -292 3 -292 29 -63 c53 -114 130 -158 268 -150 91 5 128 19 179
70 66 66 73 99 77 331 4 208 4 209 25 204 12 -3 39 -9 60 -12 l37 -7 0 -379
c0 -361 1 -381 21 -435 26 -69 80 -131 136 -156 56 -24 192 -27 244 -4 51 22
97 62 118 105 35 69 41 134 41 470 l0 328 293 6 c316 6 409 14 647 53 476 79
874 241 1098 448 l62 58 0 -511 c0 -539 -6 -642 -45 -796 -67 -267 -177 -405
-410 -519 -182 -89 -410 -144 -750 -180 -679 -72 -1489 -25 -1904 110 -125 41
-280 120 -358 184 -112 89 -195 249 -244 467 -21 93 -23 126 -26 672 l-4 574
63 -58 c35 -31 90 -76 123 -100z"/>
</g>
</svg>
