<?xml version="1.0" standalone="no"?>
<!DOCTYPE svg PUBLIC "-//W3C//DTD SVG 20010904//EN"
 "http://www.w3.org/TR/2001/REC-SVG-20010904/DTD/svg10.dtd">
<svg version="1.0" xmlns="http://www.w3.org/2000/svg"
 width="752.000000pt" height="752.000000pt" viewBox="0 0 752.000000 752.000000"
 preserveAspectRatio="xMidYMid meet">

<g transform="translate(0.000000,752.000000) scale(0.100000,-0.100000)"
fill="#414141" stroke="none">
<path d="M3782 5728 c-108 -102 -137 -146 -151 -240 -18 -108 16 -208 141
-428 41 -71 43 -79 43 -155 0 -67 -5 -90 -29 -142 -48 -105 -10 -140 63 -57
62 70 84 139 79 249 -4 89 -5 92 -70 215 -106 201 -110 271 -27 441 82 167 60
218 -49 117z"/>
<path d="M4200 5564 c-100 -68 -151 -153 -158 -265 -5 -84 -9 -74 117 -312 67
-128 58 -198 -45 -334 l-54 -73 59 0 c58 0 60 1 105 50 60 67 88 143 88 240 0
86 -19 145 -81 248 -66 111 -78 200 -40 302 26 71 41 130 37 147 -2 11 -8 10
-28 -3z"/>
<path d="M3378 5443 c-57 -61 -72 -98 -73 -183 0 -69 4 -85 54 -200 60 -140
73 -214 52 -318 -12 -62 -8 -92 14 -92 24 0 77 53 96 95 31 67 24 121 -37 303
-44 132 -56 180 -56 229 0 34 3 67 6 72 3 4 12 36 20 70 l14 61 -27 0 c-18 0
-39 -12 -63 -37z"/>
<path d="M3525 4435 c-468 -67 -752 -166 -1059 -369 -105 -69 -156 -114 -376
-331 -251 -247 -371 -359 -542 -504 -48 -41 -98 -91 -112 -111 -54 -83 -57
-173 -7 -252 35 -55 72 -78 176 -113 63 -22 106 -28 202 -33 l122 -5 20 -46
c29 -68 48 -153 62 -271 25 -219 18 -212 335 -347 282 -120 349 -144 503 -183
147 -37 300 -63 521 -89 373 -43 424 -45 607 -27 609 61 1258 178 1369 246 61
38 121 116 152 199 52 135 174 405 194 427 17 19 33 22 141 27 143 6 203 24
246 73 41 46 55 102 42 165 -20 93 -68 157 -175 233 -89 64 -177 162 -241 270
-58 100 -262 329 -402 453 -297 263 -611 425 -1025 528 -338 83 -500 96 -753
60z m555 -150 c481 -102 735 -217 1060 -479 119 -96 349 -332 428 -439 91
-123 200 -237 318 -333 104 -84 124 -110 124 -154 0 -80 -29 -93 -220 -101
-202 -9 -227 -18 -328 -119 -83 -82 -129 -106 -187 -97 -18 3 -86 26 -151 52
-191 76 -320 101 -386 76 -13 -5 -52 -38 -87 -75 -81 -82 -131 -107 -220 -107
-63 0 -73 4 -236 85 -284 144 -394 149 -540 27 -75 -62 -177 -86 -263 -61 -19
5 -75 34 -126 64 -51 30 -128 72 -172 93 -74 35 -85 38 -171 38 l-92 0 -133
-69 c-121 -63 -140 -70 -205 -74 -102 -7 -151 10 -271 92 -191 131 -163 121
-353 118 -143 -2 -174 0 -230 18 -118 37 -157 77 -144 148 8 42 105 146 180
192 217 133 270 178 399 335 313 380 728 623 1247 729 101 21 344 59 504 79
17 2 34 5 38 6 4 0 102 -19 217 -44z m-1026 -1654 c24 -12 81 -49 127 -82 124
-88 179 -112 274 -117 101 -5 160 16 263 93 88 65 126 79 202 73 53 -4 70 -11
161 -72 56 -37 138 -84 183 -104 72 -32 91 -36 166 -36 74 -1 93 3 143 27 32
16 91 59 131 97 115 106 150 105 377 -6 177 -86 211 -91 323 -49 43 16 66 21
66 13 0 -58 -83 -270 -117 -301 -92 -81 -733 -214 -1314 -272 -209 -21 -311
-19 -549 10 -631 76 -764 109 -1235 313 -71 30 -132 57 -134 58 -3 3 -40 296
-41 328 0 29 61 14 134 -33 105 -69 151 -85 241 -86 96 0 142 16 270 93 49 31
108 61 130 69 53 17 144 10 199 -16z"/>
<path d="M3976 4093 c10 -42 8 -40 166 -202 135 -139 149 -151 182 -151 33 0
36 3 36 28 0 23 -27 54 -142 169 -165 163 -258 222 -242 156z"/>
<path d="M3319 4023 c-89 -114 -189 -267 -189 -291 0 -20 24 -52 39 -52 31 0
91 67 198 220 120 171 122 175 100 187 -12 7 -37 12 -54 13 -29 0 -40 -9 -94
-77z"/>
<path d="M3690 4039 c-23 -41 -31 -84 -39 -197 -9 -125 -2 -173 34 -217 20
-27 25 -28 49 -17 42 19 49 51 36 188 -12 134 -38 255 -57 261 -6 2 -17 -6
-23 -18z"/>
</g>
</svg>
