<?xml version="1.0" standalone="no"?>
<!DOCTYPE svg PUBLIC "-//W3C//DTD SVG 20010904//EN"
 "http://www.w3.org/TR/2001/REC-SVG-20010904/DTD/svg10.dtd">
<svg version="1.0" xmlns="http://www.w3.org/2000/svg"
 width="752.000000pt" height="752.000000pt" viewBox="0 0 752.000000 752.000000"
 preserveAspectRatio="xMidYMid meet">

<g transform="translate(0.000000,752.000000) scale(0.100000,-0.100000)"
fill="#414141" stroke="none">
<path d="M3963 6119 c-113 -13 -257 -45 -393 -87 -237 -74 -258 -77 -366 -57
-108 20 -153 15 -309 -37 -340 -113 -689 -375 -928 -696 -105 -142 -373 -556
-412 -636 -89 -185 -88 -346 2 -464 l25 -34 -17 -81 c-10 -44 -30 -126 -46
-181 -48 -169 -63 -294 -63 -551 -1 -227 -1 -231 25 -285 14 -31 42 -77 62
-103 46 -60 54 -90 61 -222 9 -173 48 -295 196 -601 87 -182 144 -275 236
-385 252 -302 481 -382 628 -218 37 41 50 68 80 161 19 62 42 154 51 203 32
177 127 609 140 634 21 41 56 68 118 91 75 28 152 90 198 160 20 30 87 142
149 248 123 210 185 288 252 317 170 71 208 94 300 183 51 49 137 121 190 161
131 97 222 202 286 327 33 64 91 108 185 138 176 57 338 129 388 174 49 44 54
54 88 187 10 39 13 42 78 63 171 54 376 65 543 27 93 -20 205 -19 255 4 51 23
92 71 101 117 25 136 -64 380 -202 552 -259 323 -660 581 -1037 667 -96 22
-140 41 -230 98 -42 27 -108 62 -147 78 -120 51 -307 69 -487 48z m406 -130
c121 -17 174 -55 225 -156 43 -86 72 -188 115 -399 57 -278 104 -443 235 -809
20 -55 36 -117 36 -138 0 -74 -53 -137 -160 -192 -41 -21 -401 -157 -405 -153
-44 47 -668 1073 -920 1512 -104 181 -108 189 -89 203 68 51 181 86 439 134
82 15 132 18 275 14 96 -2 209 -9 249 -16z m-1228 -109 c39 -11 115 -84 186
-180 22 -30 98 -161 168 -290 167 -307 269 -484 368 -639 44 -69 168 -265 274
-436 221 -351 214 -331 137 -421 -49 -58 -225 -225 -397 -377 -127 -113 -178
-137 -291 -137 -68 0 -93 7 -342 99 -355 131 -473 177 -629 246 -213 94 -803
393 -902 457 -88 57 -92 61 -99 103 -10 68 12 140 80 270 118 223 322 543 442
691 167 206 416 409 643 524 79 39 255 99 296 99 17 1 46 -4 66 -9z m1784
-137 c243 -75 533 -268 766 -510 114 -118 173 -206 219 -325 41 -106 56 -182
42 -213 -23 -50 -129 -54 -282 -9 -31 9 -111 18 -181 21 -135 6 -243 -9 -339
-47 l-49 -19 -21 33 c-110 179 -310 866 -310 1066 l0 39 38 -6 c20 -3 73 -17
117 -30z m-3057 -1752 c445 -237 937 -458 1283 -576 122 -42 241 -86 264 -98
l43 -22 -14 -42 c-17 -49 -292 -494 -332 -536 -38 -40 -96 -68 -156 -74 -33
-3 -132 8 -281 32 -577 92 -904 169 -1002 237 -42 29 -85 91 -96 138 -19 79
-26 257 -17 400 11 175 24 250 80 468 22 84 40 155 40 158 0 13 37 -4 188 -85z
m100 -1298 c125 -31 366 -84 537 -118 259 -51 310 -64 313 -79 2 -9 -15 -77
-37 -149 -55 -179 -86 -312 -116 -502 -31 -197 -56 -276 -96 -310 -152 -127
-506 247 -760 805 -78 171 -99 237 -99 314 0 69 6 96 22 96 5 0 112 -25 236
-57z"/>
</g>
</svg>
